<svg width="106" height="106" viewBox="0 0 106 106" fill="none" xmlns="http://www.w3.org/2000/svg">
<rect width="106" height="106" fill="#E2FB52"/>
<path d="M21.616 82V49.464H11.158V40.832H21.616V33.196C21.616 30.374 22.446 28.133 24.106 26.473C25.8213 24.7577 28.0347 23.9 30.746 23.9H41.536V32.532H34.398C32.8487 32.532 32.074 33.362 32.074 35.022V40.832H42.864V49.464H32.074V82H21.616ZM50.9604 82V40.832H61.2524V46.227H62.7464C63.4104 44.7883 64.6554 43.4327 66.4814 42.16C68.3074 40.832 71.0741 40.168 74.7814 40.168C77.9907 40.168 80.7851 40.915 83.1644 42.409C85.5991 43.8477 87.4804 45.8673 88.8084 48.468C90.1364 51.0133 90.8004 54.0013 90.8004 57.432V82H80.3424V58.262C80.3424 55.1633 79.5677 52.8393 78.0184 51.29C76.5244 49.7407 74.3664 48.966 71.5444 48.966C68.3351 48.966 65.8451 50.045 64.0744 52.203C62.3037 54.3057 61.4184 57.266 61.4184 61.084V82H50.9604Z" fill="black"/>
</svg>