<svg width="537" height="132" viewBox="0 0 537 132" fill="none" xmlns="http://www.w3.org/2000/svg">
<path d="M112.727 72.7271V17.2726L83.2728 0.545288H54L98.1819 25.6362V81.0907L112.727 72.7271ZM36.3637 104.182L83.2728 131.454H83.091L83.8182 132L114 114.545L128.545 89.2726L84.1819 115.091L36.3637 87.4544V104.182Z" fill="url(#paint0_linear_501_56)"/>
<path d="M94.909 87.8182H95.0909L68.909 102.727L83.2727 111.091L130.909 83.2727V48.1818L116.364 22.9091V74.7273L94.909 87.8182ZM94.5454 27.6364L46.909 0L16.7272 17.4545L2.18176 42.9091L47.2727 16.9091L69.0909 29.6364H68.7272L94.5454 44.5455V27.6364Z" fill="url(#paint1_linear_501_56)"/>
<path d="M47.6364 21.0908L0 48.909V83.8181L14.5455 109.091V57.2726L36 44.5454L62.1818 29.4545L47.6364 21.0908Z" fill="url(#paint2_linear_501_56)"/>
<path d="M18.1819 59.2726V114.727L47.6365 131.454H77.091L32.7274 106.363V50.9089L18.1819 59.2726Z" fill="url(#paint3_linear_501_56)"/>
<path d="M186.648 82.1562C186.648 81.1406 186.466 80.1901 186.102 79.3047C185.763 78.4193 185.177 77.5859 184.344 76.8047C183.484 76.0495 182.365 75.3594 180.984 74.7344C179.63 74.0833 177.938 73.4844 175.906 72.9375C172.755 72.0781 169.982 71.0365 167.586 69.8125C165.216 68.5885 163.276 67.2474 161.766 65.7891C160.255 64.3307 159.109 62.7161 158.328 60.9453C157.573 59.1745 157.195 57.2474 157.195 55.1641C157.195 52.7682 157.703 50.5938 158.719 48.6406C159.734 46.6875 161.141 45.0208 162.938 43.6406C164.734 42.2604 166.857 41.2057 169.305 40.4766C171.753 39.7214 174.409 39.3438 177.273 39.3438C180.242 39.3438 182.951 39.7734 185.398 40.6328C187.872 41.4922 189.995 42.6901 191.766 44.2266C193.536 45.7891 194.917 47.638 195.906 49.7734C196.896 51.9089 197.391 54.2526 197.391 56.8047H186.688C186.635 55.5286 186.401 54.3568 185.984 53.2891C185.594 52.2214 185.008 51.2969 184.227 50.5156C183.419 49.7604 182.417 49.1745 181.219 48.7578C180.047 48.3151 178.667 48.0938 177.078 48.0938C175.62 48.0938 174.318 48.276 173.172 48.6406C172.052 48.9792 171.102 49.4609 170.32 50.0859C169.539 50.737 168.94 51.5052 168.523 52.3906C168.133 53.25 167.938 54.1875 167.938 55.2031C167.938 56.2708 168.198 57.2344 168.719 58.0938C169.266 58.9531 170.047 59.7214 171.062 60.3984C172.078 61.1016 173.302 61.7396 174.734 62.3125C176.193 62.8854 177.833 63.4193 179.656 63.9141C181.609 64.4609 183.471 65.125 185.242 65.9062C187.013 66.6875 188.641 67.5859 190.125 68.6016C192.365 70.2682 194.148 72.2083 195.477 74.4219C196.805 76.6354 197.469 79.1875 197.469 82.0781C197.469 84.5781 196.961 86.8047 195.945 88.7578C194.956 90.6849 193.576 92.3125 191.805 93.6406C190.034 94.9948 187.924 96.0234 185.477 96.7266C183.029 97.4036 180.359 97.7422 177.469 97.7422C174.63 97.7422 171.818 97.3255 169.031 96.4922C166.271 95.6328 163.862 94.3828 161.805 92.7422C159.852 91.1276 158.302 89.2266 157.156 87.0391C156.036 84.8516 155.477 82.2865 155.477 79.3438H166.258C166.31 81.0625 166.609 82.5339 167.156 83.7578C167.703 84.9818 168.471 85.9844 169.461 86.7656C170.424 87.5469 171.583 88.1198 172.938 88.4844C174.318 88.849 175.828 89.0312 177.469 89.0312C178.927 89.0312 180.216 88.862 181.336 88.5234C182.482 88.1849 183.445 87.7161 184.227 87.1172C185.008 86.5182 185.607 85.8021 186.023 84.9688C186.44 84.1094 186.648 83.1719 186.648 82.1562ZM212.234 114.07C211.193 114.07 210.281 114.005 209.5 113.875C208.745 113.745 207.898 113.549 206.961 113.289L208.289 105.008C208.732 105.008 209.292 105.021 209.969 105.047C210.672 105.099 211.232 105.125 211.648 105.125C212.508 105.125 213.263 104.852 213.914 104.305C214.591 103.784 215.164 103.211 215.633 102.586C216.102 101.961 216.44 101.492 216.648 101.18C216.883 100.867 217.156 100.424 217.469 99.8516L219.969 95.2031L202.078 54.7344H213.953L223.641 79.5L224.812 83.7969L226.414 79.5781L236.062 54.7344H248.055L226.609 103.328C226.141 104.396 225.529 105.555 224.773 106.805C224.044 108.055 223.12 109.214 222 110.281C220.88 111.349 219.513 112.247 217.898 112.977C216.31 113.706 214.422 114.07 212.234 114.07ZM253.602 97V54.7344H263.445L264.109 60.5938C264.656 59.8125 265.255 59.0964 265.906 58.4453C266.557 57.7943 267.247 57.2083 267.977 56.6875C269.227 55.8021 270.594 55.125 272.078 54.6562C273.562 54.1875 275.138 53.9531 276.805 53.9531C278.94 53.9531 280.893 54.2656 282.664 54.8906C284.435 55.5156 285.971 56.5052 287.273 57.8594C288.549 59.2396 289.539 61.0104 290.242 63.1719C290.971 65.3073 291.336 67.9115 291.336 70.9844V97H280.477V71.1406C280.477 69.474 280.281 68.1068 279.891 67.0391C279.526 65.9453 278.992 65.0859 278.289 64.4609C277.586 63.8359 276.74 63.4062 275.75 63.1719C274.76 62.9115 273.641 62.7812 272.391 62.7812C271.349 62.7812 270.385 62.8984 269.5 63.1328C268.641 63.3672 267.872 63.7188 267.195 64.1875C266.648 64.526 266.154 64.9297 265.711 65.3984C265.268 65.8672 264.865 66.388 264.5 66.9609V97H253.602ZM321.57 44.3828V54.7344H337.352V62.7422H321.57V80.9062C321.57 82.4427 321.74 83.7318 322.078 84.7734C322.443 85.7891 322.951 86.5964 323.602 87.1953C324.253 87.8203 325.034 88.263 325.945 88.5234C326.883 88.7839 327.924 88.9141 329.07 88.9141C329.904 88.9141 330.75 88.875 331.609 88.7969C332.495 88.7188 333.341 88.6146 334.148 88.4844C334.93 88.3802 335.659 88.263 336.336 88.1328C337.039 88.0026 337.638 87.8724 338.133 87.7422L339.188 95.2031C338.432 95.6458 337.547 96.0365 336.531 96.375C335.516 96.6875 334.435 96.9479 333.289 97.1562C332.143 97.3646 330.945 97.5208 329.695 97.625C328.471 97.7552 327.26 97.8203 326.062 97.8203C323.745 97.8203 321.635 97.5208 319.734 96.9219C317.859 96.2969 316.258 95.3333 314.93 94.0312C313.576 92.7552 312.534 91.1276 311.805 89.1484C311.076 87.1432 310.711 84.7474 310.711 81.9609V62.7422H301.062V54.7344H310.711V44.3828H321.57ZM360.555 60.5547C361.102 59.7474 361.701 59.0052 362.352 58.3281C363.029 57.625 363.732 57.013 364.461 56.4922C365.581 55.6849 366.818 55.0599 368.172 54.6172C369.526 54.1745 370.958 53.9531 372.469 53.9531C374.682 53.9531 376.714 54.2917 378.562 54.9688C380.411 55.6198 382 56.6484 383.328 58.0547C384.656 59.4609 385.685 61.2708 386.414 63.4844C387.169 65.6719 387.547 68.3151 387.547 71.4141V97H376.688V71.3359C376.688 69.8255 376.492 68.5234 376.102 67.4297C375.737 66.3359 375.203 65.4505 374.5 64.7734C373.797 64.0964 372.951 63.6016 371.961 63.2891C370.971 62.9505 369.852 62.7812 368.602 62.7812C367.638 62.7812 366.74 62.8724 365.906 63.0547C365.073 63.237 364.318 63.5104 363.641 63.875C363.016 64.1875 362.443 64.5651 361.922 65.0078C361.427 65.4505 360.971 65.9453 360.555 66.4922V97H349.695V37H360.555V60.5547ZM436.844 79.1875C436.661 82.0521 436.036 84.6302 434.969 86.9219C433.927 89.2135 432.521 91.1667 430.75 92.7812C428.979 94.3958 426.87 95.6458 424.422 96.5312C421.974 97.3906 419.266 97.8203 416.297 97.8203C413.953 97.8203 411.779 97.5208 409.773 96.9219C407.794 96.2969 406.01 95.4115 404.422 94.2656C402.964 93.1979 401.661 91.9089 400.516 90.3984C399.396 88.888 398.445 87.2214 397.664 85.3984C396.909 83.5755 396.323 81.5703 395.906 79.3828C395.516 77.1953 395.32 74.8776 395.32 72.4297V64.7734C395.32 62.4818 395.503 60.3073 395.867 58.25C396.232 56.1667 396.779 54.2396 397.508 52.4688C398.341 50.3073 399.435 48.3802 400.789 46.6875C402.143 44.9948 403.68 43.5625 405.398 42.3906C406.935 41.401 408.615 40.6458 410.438 40.125C412.286 39.5781 414.266 39.3047 416.375 39.3047C419.5 39.3047 422.273 39.7474 424.695 40.6328C427.143 41.5182 429.227 42.7812 430.945 44.4219C432.664 46.0625 434.018 48.0677 435.008 50.4375C435.997 52.8073 436.622 55.4766 436.883 58.4453H425.945C425.841 56.7526 425.581 55.2682 425.164 53.9922C424.773 52.7161 424.201 51.6484 423.445 50.7891C422.664 49.9557 421.688 49.3307 420.516 48.9141C419.37 48.4714 417.99 48.25 416.375 48.25C415.516 48.25 414.708 48.3411 413.953 48.5234C413.224 48.7057 412.547 48.9792 411.922 49.3438C410.854 49.9688 409.943 50.8672 409.188 52.0391C408.458 53.1849 407.872 54.526 407.43 56.0625C407.091 57.2604 406.844 58.5885 406.688 60.0469C406.531 61.4792 406.453 63.0286 406.453 64.6953V72.4297C406.453 74.6953 406.57 76.7266 406.805 78.5234C407.065 80.2943 407.456 81.8438 407.977 83.1719C408.341 84.0833 408.771 84.8906 409.266 85.5938C409.786 86.2969 410.372 86.8828 411.023 87.3516C411.727 87.8724 412.508 88.263 413.367 88.5234C414.253 88.7578 415.229 88.875 416.297 88.875C417.729 88.875 419.018 88.6927 420.164 88.3281C421.31 87.9635 422.286 87.3906 423.094 86.6094C423.901 85.8281 424.539 84.8255 425.008 83.6016C425.477 82.3776 425.763 80.9062 425.867 79.1875H436.844ZM473.367 97L472.742 91.0625C471.31 93.1719 469.578 94.8255 467.547 96.0234C465.542 97.2214 463.341 97.8203 460.945 97.8203C458.758 97.8203 456.753 97.4818 454.93 96.8047C453.107 96.1276 451.544 95.0469 450.242 93.5625C448.94 92.1042 447.924 90.2422 447.195 87.9766C446.492 85.6849 446.141 82.9375 446.141 79.7344V54.7344H457V79.8125C457 81.5312 457.117 82.9766 457.352 84.1484C457.612 85.3203 458.016 86.2578 458.562 86.9609C459.109 87.6901 459.826 88.2109 460.711 88.5234C461.596 88.8359 462.677 88.9922 463.953 88.9922C465.099 88.9922 466.128 88.875 467.039 88.6406C467.977 88.4062 468.797 88.0677 469.5 87.625C470.099 87.2344 470.633 86.7656 471.102 86.2188C471.57 85.6719 471.974 85.0599 472.312 84.3828V54.7344H483.211V97H473.367ZM513.758 44.3828V54.7344H529.539V62.7422H513.758V80.9062C513.758 82.4427 513.927 83.7318 514.266 84.7734C514.63 85.7891 515.138 86.5964 515.789 87.1953C516.44 87.8203 517.221 88.263 518.133 88.5234C519.07 88.7839 520.112 88.9141 521.258 88.9141C522.091 88.9141 522.938 88.875 523.797 88.7969C524.682 88.7188 525.529 88.6146 526.336 88.4844C527.117 88.3802 527.846 88.263 528.523 88.1328C529.227 88.0026 529.826 87.8724 530.32 87.7422L531.375 95.2031C530.62 95.6458 529.734 96.0365 528.719 96.375C527.703 96.6875 526.622 96.9479 525.477 97.1562C524.331 97.3646 523.133 97.5208 521.883 97.625C520.659 97.7552 519.448 97.8203 518.25 97.8203C515.932 97.8203 513.823 97.5208 511.922 96.9219C510.047 96.2969 508.445 95.3333 507.117 94.0312C505.763 92.7552 504.721 91.1276 503.992 89.1484C503.263 87.1432 502.898 84.7474 502.898 81.9609V62.7422H493.25V54.7344H502.898V44.3828H513.758Z" fill="black"/>
<defs>
<linearGradient id="paint0_linear_501_56" x1="36.3637" y1="132" x2="159.953" y2="45.3335" gradientUnits="userSpaceOnUse">
<stop stop-color="#14F195"/>
<stop offset="1" stop-color="#9945FF"/>
</linearGradient>
<linearGradient id="paint1_linear_501_56" x1="2.18176" y1="111.091" x2="112.078" y2="-16.2515" gradientUnits="userSpaceOnUse">
<stop stop-color="#14F195"/>
<stop offset="1" stop-color="#9945FF"/>
</linearGradient>
<linearGradient id="paint2_linear_501_56" x1="0" y1="109.091" x2="82.9478" y2="50.479" gradientUnits="userSpaceOnUse">
<stop stop-color="#14F195"/>
<stop offset="1" stop-color="#9945FF"/>
</linearGradient>
<linearGradient id="paint3_linear_501_56" x1="18.1819" y1="131.454" x2="94.9408" y2="75.3147" gradientUnits="userSpaceOnUse">
<stop stop-color="#14F195"/>
<stop offset="1" stop-color="#9945FF"/>
</linearGradient>
</defs>
</svg>